<svg width="761" height="153" viewBox="0 0 761 153" fill="none" xmlns="http://www.w3.org/2000/svg">
<rect x="736" y="69.5624" width="15.378" height="11.3" transform="rotate(37 736 69.5624)" fill="#9673FA" fill-opacity="0.75"/>
<circle cx="663.135" cy="31.0985" r="4.135" fill="#9673FA" fill-opacity="0.85"/>
<circle cx="591.135" cy="37.4182" r="7.135" fill="#9673FA" fill-opacity="0.85"/>
<circle cx="590.635" cy="118.918" r="7.635" fill="#9673FA" fill-opacity="0.6"/>
<circle cx="405.635" cy="48.9182" r="3.635" fill="#9673FA"/>
<circle cx="569.635" cy="11.9182" r="7.635" fill="#9673FA" fill-opacity="0.9"/>
<path d="M46.8217 146.261L41.6002 145.555L37.6658 149.06L38.3712 143.838L34.8666 139.904L40.0881 140.61L44.0224 137.105L43.317 142.326L46.8217 146.261Z" fill="#9673FA" fill-opacity="0.45"/>
<rect x="761" y="62.5624" width="7.378" height="15.3" transform="rotate(107 761 62.5624)" fill="#3CC8FA" fill-opacity="0.45"/>
<rect x="715.188" y="110.986" width="25.378" height="13.3" transform="rotate(38 715.188 110.986)" fill="#9673FA" fill-opacity="0.45"/>
<circle cx="590.135" cy="13.4182" r="6.135" fill="#3CC8FA" fill-opacity="0.6"/>
<circle cx="691.635" cy="17.9182" r="3.635" fill="#3CC8FA" fill-opacity="0.85"/>
<path d="M723.317 78.6498L714.421 72.4208L724.264 67.8312L723.317 78.6498Z" fill="#3CC8FA" fill-opacity="0.75"/>
<path d="M635.36 25.6083L646.394 17.2931L654.71 28.3277L643.675 36.6429L635.36 25.6083Z" fill="#3CC8FA" fill-opacity="0.85"/>
<path d="M668.701 29.2809L671.438 24.3434L667.588 20.2148L673.129 21.2919L675.866 16.3545L676.554 21.9577L682.096 23.0348L676.979 25.4206L677.667 31.0238L673.817 26.8951L668.701 29.2809Z" fill="#9673FA" fill-opacity="0.75"/>
<rect x="683" y="24.2832" width="12.378" height="10.3" transform="rotate(-99 683 24.2832)" fill="#9673FA" fill-opacity="0.6"/>
<circle cx="5.135" cy="127.418" r="5.135" fill="#9673FA" fill-opacity="0.35"/>
<circle cx="609.635" cy="44.5985" r="3.635" fill="#3CC8FA" fill-opacity="0.75"/>
<path d="M85.6216 2.58666L95.9445 7.62149L94.3461 18.995L83.0352 20.9895L77.6432 10.8485L85.6216 2.58666Z" fill="#9673FA" fill-opacity="0.85"/>
<circle cx="700.635" cy="66.635" r="2.635" fill="#3CC8FA" fill-opacity="0.75"/>
<path d="M732.921 107.851L735.35 114.202L741.776 111.98L737.49 117.259L742.627 121.713L735.913 120.641L734.624 127.317L732.196 120.966L725.77 123.188L730.055 117.91L724.918 113.455L731.632 114.527L732.921 107.851Z" fill="#9673FA" fill-opacity="0.45"/>
<path d="M716.283 39.7812L722.977 40.9702L724.383 34.3178L726.7 40.7099L733.164 38.6007L728.787 43.8037L733.845 48.3469L727.151 47.1579L725.746 53.8102L723.428 47.4182L716.964 49.5274L721.341 44.3244L716.283 39.7812Z" fill="#3CC8FA" fill-opacity="0.35"/>
<path d="M688.754 115.755L689.727 120.365L694.366 119.541L690.861 122.689L693.894 126.295L689.415 124.833L687.809 129.262L686.835 124.653L682.196 125.477L685.702 122.329L682.669 118.723L687.148 120.185L688.754 115.755Z" fill="#9673FA" fill-opacity="0.6"/>
<circle cx="542.635" cy="15.9182" r="2.635" fill="#3CC8FA" fill-opacity="0.9"/>
</svg>
