<svg width="377" height="116" viewBox="0 0 377 116" fill="none" xmlns="http://www.w3.org/2000/svg">
<rect x="38" y="93" width="12.378" height="10.3" transform="rotate(-62 38 93)" fill="#9673FA" fill-opacity="0.35"/>
<rect x="38" y="51" width="15.378" height="14.3" transform="rotate(-167 38 51)" fill="#9673FA"/>
<rect x="89" y="114" width="40.378" height="10.3" transform="rotate(-140 89 114)" fill="#9673FA" fill-opacity="0.65"/>
<circle cx="80.135" cy="22.135" r="8.135" fill="#9673FA" fill-opacity="0.45"/>
<path d="M20.1549 14.0951L16.3684 19.774L18.2147 26.345L12.5358 22.5586L5.96472 24.4048L9.7512 18.7259L7.90492 12.1549L13.5838 15.9414L20.1549 14.0951Z" fill="#9673FA" fill-opacity="0.6"/>
<path d="M6.60472 47.023L11.1968 50.4924L14.8131 46.0151L14.1045 51.7267L19.7901 52.6198L14.4895 54.862L16.5587 60.2324L11.9667 56.763L8.35038 61.2403L9.05895 55.5288L3.37337 54.6356L8.67398 52.3934L6.60472 47.023Z" fill="#9673FA"/>
<path d="M104.765 95.018L111.016 103.945L104.457 112.648L94.1534 109.1L94.3436 98.2041L104.765 95.018Z" fill="#3CC8FA"/>
<path d="M97.2644 87.6765L100.003 94.3512L106.852 96.6173L100.177 99.3557L97.9114 106.205L95.173 99.5304L88.3235 97.2644L94.9983 94.526L97.2644 87.6765Z" fill="#9673FA" fill-opacity="0.65"/>
<circle cx="107.635" cy="55.635" r="2.635" fill="#9673FA" fill-opacity="0.85"/>
<path d="M45.0459 38.6007L38.1878 30.1318L44.123 20.9923L54.6493 23.8128L55.2196 34.6954L45.0459 38.6007Z" fill="#3CC8FA" fill-opacity="0.6"/>
<path d="M54.7082 70.0191L42.3973 63.7464L48.67 51.4355L60.9809 57.7082L54.7082 70.0191Z" fill="#9673FA" fill-opacity="0.85"/>
<path d="M85.6825 65.6498L86.6291 76.4684L76.7866 71.8788L85.6825 65.6498Z" fill="#9673FA" fill-opacity="0.9"/>
<path d="M120.049 93.2255L128.308 89.017L136.083 94.0658L135.598 103.323L127.338 107.532L119.564 102.483L120.049 93.2255Z" fill="#3CC8FA" fill-opacity="0.45"/>
<rect width="12.378" height="10.3" transform="matrix(-0.469472 -0.882948 -0.882948 0.469472 338.646 86)" fill="#9673FA" fill-opacity="0.35"/>
<rect width="15.378" height="14.3" transform="matrix(0.97437 -0.224951 -0.224951 -0.97437 338.646 44)" fill="#9673FA"/>
<rect width="40.378" height="10.3" transform="matrix(0.766044 -0.642788 -0.642788 -0.766044 287.646 107)" fill="#9673FA" fill-opacity="0.65"/>
<circle r="8.135" transform="matrix(-1 0 0 1 296.511 15.135)" fill="#9673FA" fill-opacity="0.45"/>
<path d="M356.492 7.09508L360.278 12.774L358.432 19.345L364.111 15.5586L370.682 17.4048L366.895 11.7259L368.742 5.15488L363.063 8.94136L356.492 7.09508Z" fill="#9673FA" fill-opacity="0.6"/>
<path d="M370.042 40.023L365.45 43.4924L361.833 39.0151L362.542 44.7267L356.856 45.6198L362.157 47.862L360.088 53.2324L364.68 49.763L368.296 54.2403L367.588 48.5288L373.273 47.6356L367.973 45.3934L370.042 40.023Z" fill="#9673FA"/>
<path d="M271.882 88.018L265.631 96.9448L272.189 105.648L282.493 102.1L282.303 91.2041L271.882 88.018Z" fill="#3CC8FA"/>
<path d="M279.382 80.6765L276.644 87.3512L269.794 89.6173L276.469 92.3557L278.735 99.2052L281.473 92.5304L288.323 90.2644L281.648 87.526L279.382 80.6765Z" fill="#9673FA" fill-opacity="0.65"/>
<circle r="2.635" transform="matrix(-1 0 0 1 269.011 48.635)" fill="#9673FA" fill-opacity="0.85"/>
<path d="M331.601 31.6007L338.459 23.1318L332.523 13.9923L321.997 16.8128L321.427 27.6954L331.601 31.6007Z" fill="#3CC8FA" fill-opacity="0.6"/>
<path d="M321.938 63.0191L334.249 56.7464L327.976 44.4355L315.666 50.7082L321.938 63.0191Z" fill="#9673FA" fill-opacity="0.85"/>
<path d="M290.964 58.6498L290.017 69.4684L299.86 64.8788L290.964 58.6498Z" fill="#9673FA" fill-opacity="0.9"/>
<path d="M256.598 86.2255L248.338 82.017L240.564 87.0658L241.049 96.3231L249.308 100.532L257.083 95.4828L256.598 86.2255Z" fill="#3CC8FA" fill-opacity="0.45"/>
</svg>
